<svg width="616" height="131" viewBox="0 0 616 131" fill="none" xmlns="http://www.w3.org/2000/svg">
<g clip-path="url(#clip0_143_49)">
<path d="M26.089 85.5548C27.2151 102.85 36.5996 111.313 54.6179 111.313C69.4455 111.313 79.0177 106.346 87.0884 94.5702H88.0268V115.177C77.5161 126.4 66.067 131 49.1749 131C18.3937 131 0 110.945 0 76.9073C0 43.6054 18.0183 24.1025 48.7995 24.1025C77.3284 24.1025 93.4698 42.1334 93.4698 73.5955C93.5098 77.601 93.1958 81.6024 92.5314 85.5548H26.089ZM73.95 66.604C71.5101 52.6208 63.6271 45.9972 49.738 45.9972C35.0981 45.9972 26.8397 53.1728 26.2767 66.604H73.95Z" fill="#347193"/>
<path d="M105.857 85.5548C105.193 81.6024 104.879 77.601 104.919 73.5955C104.919 42.1334 121.06 24.1025 149.589 24.1025C180.371 24.1025 198.389 43.6054 198.389 76.9073C198.389 110.945 179.995 131 149.214 131C132.322 131 120.873 126.4 110.362 115.177V94.5702H111.3C119.371 106.346 128.943 111.313 143.771 111.313C161.789 111.313 171.174 102.85 172.3 85.5548H105.857ZM172.112 66.604C171.549 53.1728 163.291 45.9972 148.651 45.9972C134.762 45.9972 126.879 52.6208 124.439 66.604H172.112Z" fill="#347193"/>
<path d="M291.671 66.236H290.732C283.6 55.3807 274.216 50.229 261.828 50.229C245.874 50.229 236.678 60.7164 236.678 79.1153C236.678 98.0661 246.25 109.105 262.954 109.105C275.154 109.105 284.351 103.218 290.92 91.4425H291.859C291.483 97.3302 291.483 101.01 291.483 104.69C291.483 106.53 291.671 110.577 291.859 115.177C283.225 126.4 272.902 131 256.948 131C242.496 131 231.985 126.952 224.102 118.489C214.906 108.553 209.838 93.4664 209.838 75.9875C209.838 43.7894 227.668 24.2866 257.324 24.2866C272.151 24.2866 281.911 28.3344 291.671 38.6377V66.236Z" fill="#347193"/>
<path d="M309.126 0H337.28V46.1812C340.846 38.2697 343.098 35.1419 347.603 31.4621C353.421 26.4944 360.929 24.1025 369.938 24.1025C382.888 24.1025 392.836 29.2542 398.091 38.6376C402.221 45.9972 402.408 47.2851 402.408 67.7079V127.872H374.255V73.0436C374.255 63.4761 373.879 60.7163 372.19 57.4045C369.938 52.8048 364.495 50.045 357.926 50.045C354.594 49.9424 351.294 50.7053 348.361 52.2563C345.427 53.8073 342.964 56.0912 341.221 58.8764C338.218 63.8441 337.28 68.0759 337.28 78.5632V127.872H309.126V0Z" fill="#347193"/>
<path d="M443.7 85.5548C444.826 102.85 454.211 111.313 472.229 111.313C487.057 111.313 496.629 106.346 504.7 94.5702H505.638V115.177C495.127 126.4 483.678 131 466.786 131C436.005 131 417.611 110.945 417.611 76.9073C417.611 43.6054 435.629 24.1025 466.411 24.1025C494.94 24.1025 511.081 42.1334 511.081 73.5955C511.121 77.601 510.807 81.6024 510.143 85.5548H443.7ZM491.561 66.604C489.121 52.6208 481.238 45.9972 467.349 45.9972C452.709 45.9972 444.451 53.1728 443.888 66.604H491.561Z" fill="#347193"/>
<path d="M523.469 85.5548C522.804 81.6024 522.49 77.601 522.53 73.5955C522.53 42.1334 538.672 24.1025 567.2 24.1025C597.982 24.1025 616 43.6054 616 76.9073C616 110.945 597.606 131 566.825 131C549.933 131 538.484 126.4 527.973 115.177V94.5702H528.912C536.982 106.346 546.555 111.313 561.382 111.313C579.4 111.313 588.785 102.85 589.911 85.5548H523.469ZM589.723 66.604C589.16 53.1728 580.902 45.9972 566.262 45.9972C552.373 45.9972 544.49 52.6208 542.05 66.604H589.723Z" fill="#347193"/>
</g>
<defs>
<clipPath id="clip0_143_49">
<rect width="616" height="131" fill="white"/>
</clipPath>
</defs>
</svg>
