<?xml version="1.0" encoding="utf-8"?>
<!-- Generator: Adobe Illustrator 25.4.1, SVG Export Plug-In . SVG Version: 6.00 Build 0)  -->
<svg version="1.1" id="Layer_1" xmlns="http://www.w3.org/2000/svg" xmlns:xlink="http://www.w3.org/1999/xlink" x="0px" y="0px"
	 viewBox="0 0 56 31" style="enable-background:new 0 0 56 31;" xml:space="preserve">
<style type="text/css">
	.st0{fill:#347193;}
</style>
<path class="st0" d="M7.3,17.8c0.3,5,2.9,7.5,7.9,7.5c4.1,0,6.8-1.4,9-4.9h0.3v6c-2.9,3.3-6.1,4.6-10.8,4.6C5.1,31,0,25.2,0,15.3
	C0,5.7,5,0,13.6,0C21.5,0,26,5.2,26,14.4c0,1.2-0.1,2.3-0.3,3.5H7.3z M20.6,12.3c-0.7-4.1-2.9-6-6.7-6c-4.1,0-6.4,2.1-6.5,6H20.6z"
	/>
<path class="st0" d="M29.3,17.8c-0.2-1.1-0.3-2.3-0.3-3.5C29,5.2,33.7,0,41.9,0C50.8,0,56,5.7,56,15.3C56,25.2,50.7,31,41.8,31
	c-4.9,0-8.2-1.3-11.2-4.6v-6h0.3c2.3,3.4,5.1,4.9,9.4,4.9c5.2,0,7.9-2.5,8.2-7.5H29.3z M48.4,12.3c-0.2-3.9-2.5-6-6.8-6
	c-4,0-6.3,1.9-7,6H48.4z"/>
</svg>
